<svg width="16" height="16" viewBox="0 0 16 16" fill="none" xmlns="http://www.w3.org/2000/svg">
<path d="M11.6596 10.631L15.787 14.7585C16.071 15.0425 16.071 15.503 15.787 15.787C15.503 16.071 15.0425 16.071 14.7585 15.787L10.631 11.6596C9.51128 12.5553 8.09092 13.0909 6.54545 13.0909C2.9305 13.0909 0 10.1604 0 6.54545C0 2.9305 2.9305 0 6.54545 0C10.1604 0 13.0909 2.9305 13.0909 6.54545C13.0909 8.09092 12.5553 9.51128 11.6596 10.631ZM6.54545 11.6364C9.35709 11.6364 11.6364 9.35709 11.6364 6.54545C11.6364 3.73382 9.35709 1.45455 6.54545 1.45455C3.73382 1.45455 1.45455 3.73382 1.45455 6.54545C1.45455 9.35709 3.73382 11.6364 6.54545 11.6364Z" fill="#999999"/>
</svg>
