<svg width="25" height="29" viewBox="0 0 25 29" fill="none" xmlns="http://www.w3.org/2000/svg">
<path d="M6.39581 24.2085H9.93748" stroke="white" stroke-width="1.5" stroke-linecap="round" stroke-linejoin="round"/>
<path d="M15.25 16.3842V24.9168C15.25 26.4822 13.9821 27.7502 12.4166 27.7502H3.91665C2.35123 27.7502 1.08331 26.4822 1.08331 24.9168V7.91683C1.08331 6.35141 2.35123 5.0835 3.91665 5.0835H9.01665" stroke="white" stroke-width="1.5" stroke-linecap="round" stroke-linejoin="round"/>
<path d="M12.4436 8.625C12.3458 8.625 12.2665 8.70433 12.2679 8.80208C12.2679 8.89983 12.3472 8.97917 12.445 8.97917C12.5427 8.97917 12.6221 8.89983 12.6221 8.80208C12.6207 8.70433 12.5413 8.625 12.4436 8.625Z" stroke="white" stroke-width="1.5" stroke-linecap="round" stroke-linejoin="round"/>
<path d="M15.9853 8.625C15.8875 8.625 15.8082 8.70433 15.8096 8.80208C15.8096 8.89983 15.8889 8.97917 15.9867 8.97917C16.0844 8.97917 16.1638 8.89983 16.1638 8.80208C16.1623 8.70433 16.083 8.625 15.9853 8.625Z" stroke="white" stroke-width="1.5" stroke-linecap="round" stroke-linejoin="round"/>
<path d="M19.5269 8.625C19.4291 8.625 19.3498 8.70433 19.3498 8.80208C19.3498 8.89983 19.4291 8.97917 19.5269 8.97917C19.6246 8.97917 19.704 8.89983 19.704 8.80208C19.704 8.70433 19.6246 8.625 19.5269 8.625Z" stroke="white" stroke-width="1.5" stroke-linecap="round" stroke-linejoin="round"/>
<path d="M9.06338 12.2504C8.49388 11.1667 8.16663 9.93416 8.16663 8.62516C8.16663 4.32133 11.6545 0.833496 15.9583 0.833496C20.2621 0.833496 23.75 4.32133 23.75 8.62516C23.75 12.929 20.2621 16.4168 15.9583 16.4168C14.6592 16.4168 13.4366 16.0938 12.36 15.5328L8.19354 16.4168L9.06338 12.2504V12.2504Z" stroke="white" stroke-width="1.5" stroke-linecap="round" stroke-linejoin="round"/>
</svg>
