<svg width="28" height="29" viewBox="0 0 28 29" fill="none" xmlns="http://www.w3.org/2000/svg">
<path d="M9.91433 18.0986C4.8795 18.7616 1.25 20.6104 1.25 22.792C1.25 25.5305 6.95775 27.7504 14 27.7504C21.0422 27.7504 26.75 25.5305 26.75 22.792C26.75 20.6104 23.1205 18.7616 18.0857 18.0986" stroke="white" stroke-width="1.5" stroke-linecap="round" stroke-linejoin="round"/>
<path d="M22.5 9.09691C22.5 4.53383 18.6948 0.833496 14 0.833496C9.30517 0.833496 5.5 4.53383 5.5 9.09691C5.5 15.2948 14 22.0835 14 22.0835C14 22.0835 22.5 15.2948 22.5 9.09691Z" stroke="white" stroke-width="1.5" stroke-linecap="round" stroke-linejoin="round"/>
<path d="M16.0034 7.32986C17.1099 8.43635 17.1099 10.2303 16.0034 11.3368C14.8969 12.4433 13.103 12.4433 11.9965 11.3368C10.89 10.2303 10.89 8.43635 11.9965 7.32986C13.103 6.22338 14.8969 6.22338 16.0034 7.32986" stroke="white" stroke-width="1.5" stroke-linecap="round" stroke-linejoin="round"/>
</svg>
