<svg width="28" height="22" viewBox="0 0 28 22" fill="none" xmlns="http://www.w3.org/2000/svg">
<path d="M1.25 3.608C1.25 4.44525 1.66508 5.22866 2.35783 5.69758L10.8309 11.4393C12.7505 12.7398 15.2693 12.7398 17.1889 11.4393L25.6407 5.71033C26.3349 5.24283 26.75 4.45941 26.75 3.62216V3.608C26.75 2.214 25.6195 1.0835 24.2255 1.0835H3.7745C2.3805 1.0835 1.25 2.214 1.25 3.608V3.608Z" stroke="white" stroke-width="1.5" stroke-linecap="round" stroke-linejoin="round"/>
<path d="M1.25 3.91699V18.0837C1.25 19.6491 2.51792 20.917 4.08333 20.917H23.9167C25.4821 20.917 26.75 19.6491 26.75 18.0837V3.91699" stroke="white" stroke-width="1.5" stroke-linecap="round" stroke-linejoin="round"/>
<path d="M2.08014 20.0865L10.7785 11.3882" stroke="white" stroke-width="1.5" stroke-linecap="round" stroke-linejoin="round"/>
<path d="M17.2314 11.3979L25.9156 20.0821" stroke="white" stroke-width="1.5" stroke-linecap="round" stroke-linejoin="round"/>
</svg>
