<svg width="34" height="34" viewBox="0 0 34 34" fill="none" xmlns="http://www.w3.org/2000/svg">
<path fill-rule="evenodd" clip-rule="evenodd" d="M10.6193 4.25H23.3821C26.8982 4.25 29.75 7.10033 29.75 10.6193V23.3821C29.75 26.8982 26.8997 29.75 23.3807 29.75H10.6193C7.10175 29.75 4.25 26.8997 4.25 23.3807V10.6193C4.25 7.10175 7.10033 4.25 10.6193 4.25V4.25Z" stroke="white" stroke-width="1.5" stroke-linecap="round" stroke-linejoin="round"/>
<path d="M24.011 9.51025C23.7475 9.51167 23.5336 9.72559 23.5336 9.98909C23.5336 10.2526 23.7489 10.4665 24.0124 10.4665C24.2759 10.4665 24.4898 10.2526 24.4898 9.98909C24.4912 9.72417 24.2759 9.51025 24.011 9.51025Z" stroke="white" stroke-width="1.5" stroke-linecap="round" stroke-linejoin="round"/>
<path d="M20.6063 13.3937C22.598 15.3853 22.598 18.6145 20.6063 20.6062C18.6146 22.5978 15.3855 22.5978 13.3938 20.6062C11.4021 18.6145 11.4021 15.3853 13.3938 13.3937C15.3855 11.402 18.6146 11.402 20.6063 13.3937" stroke="white" stroke-width="1.5" stroke-linecap="round" stroke-linejoin="round"/>
</svg>
