<svg width="42" height="45" viewBox="0 0 42 45" fill="none" xmlns="http://www.w3.org/2000/svg">
<path d="M14.511 28.9207C6.5145 29.9737 0.75 32.91 0.75 36.375C0.75 40.7242 9.81525 44.25 21 44.25C32.1848 44.25 41.25 40.7242 41.25 36.375C41.25 32.91 35.4855 29.9737 27.489 28.9207" stroke="#222222" stroke-width="1.5" stroke-linecap="round" stroke-linejoin="round"/>
<path d="M34.5 14.6242C34.5 7.377 28.4565 1.5 21 1.5C13.5435 1.5 7.5 7.377 7.5 14.6242C7.5 24.468 21 35.25 21 35.25C21 35.25 34.5 24.468 34.5 14.6242Z" stroke="#222222" stroke-width="1.5" stroke-linecap="round" stroke-linejoin="round"/>
<path d="M24.182 11.818C25.9394 13.5754 25.9394 16.4246 24.182 18.182C22.4246 19.9393 19.5754 19.9393 17.818 18.182C16.0607 16.4246 16.0607 13.5754 17.818 11.818C19.5754 10.0607 22.4246 10.0607 24.182 11.818" stroke="#222222" stroke-width="1.5" stroke-linecap="round" stroke-linejoin="round"/>
</svg>
