<svg width="42" height="34" viewBox="0 0 42 34" fill="none" xmlns="http://www.w3.org/2000/svg">
<path d="M0.75 5.2595C0.75 6.58925 1.40925 7.8335 2.5095 8.57825L15.9667 17.6975C19.0155 19.763 23.016 19.763 26.0648 17.6975L39.4882 8.5985C40.5907 7.856 41.25 6.61175 41.25 5.282V5.2595C41.25 3.0455 39.4545 1.25 37.2405 1.25H4.7595C2.5455 1.25 0.75 3.0455 0.75 5.2595V5.2595Z" stroke="#222222" stroke-width="1.5" stroke-linecap="round" stroke-linejoin="round"/>
<path d="M0.75 5.75V28.25C0.75 30.7363 2.76375 32.75 5.25 32.75H36.75C39.2363 32.75 41.25 30.7363 41.25 28.25V5.75" stroke="#222222" stroke-width="1.5" stroke-linecap="round" stroke-linejoin="round"/>
<path d="M2.06836 31.4315L15.8834 17.6165" stroke="#222222" stroke-width="1.5" stroke-linecap="round" stroke-linejoin="round"/>
<path d="M26.1323 17.6321L39.9248 31.4246" stroke="#222222" stroke-width="1.5" stroke-linecap="round" stroke-linejoin="round"/>
</svg>
