<svg width="38" height="45" viewBox="0 0 38 45" fill="none" xmlns="http://www.w3.org/2000/svg">
<path d="M9.6875 38.625H15.3125" stroke="#222222" stroke-width="1.5" stroke-linecap="round" stroke-linejoin="round"/>
<path d="M23.75 26.1983V39.75C23.75 42.2363 21.7363 44.25 19.25 44.25H5.75C3.26375 44.25 1.25 42.2363 1.25 39.75V12.75C1.25 10.2638 3.26375 8.25 5.75 8.25H13.85" stroke="#222222" stroke-width="1.5" stroke-linecap="round" stroke-linejoin="round"/>
<path d="M19.2927 13.875C19.1375 13.875 19.0115 14.001 19.0137 14.1562C19.0137 14.3115 19.1397 14.4375 19.295 14.4375C19.4502 14.4375 19.5762 14.3115 19.5762 14.1562C19.574 14.001 19.448 13.875 19.2927 13.875Z" stroke="#222222" stroke-width="1.5" stroke-linecap="round" stroke-linejoin="round"/>
<path d="M24.9177 13.875C24.7625 13.875 24.6365 14.001 24.6387 14.1562C24.6387 14.3115 24.7647 14.4375 24.92 14.4375C25.0752 14.4375 25.2012 14.3115 25.2012 14.1562C25.199 14.001 25.073 13.875 24.9177 13.875Z" stroke="#222222" stroke-width="1.5" stroke-linecap="round" stroke-linejoin="round"/>
<path d="M30.543 13.875C30.3877 13.875 30.2617 14.001 30.2617 14.1562C30.2617 14.3115 30.3877 14.4375 30.543 14.4375C30.6982 14.4375 30.8242 14.3115 30.8242 14.1562C30.8242 14.001 30.6982 13.875 30.543 13.875Z" stroke="#222222" stroke-width="1.5" stroke-linecap="round" stroke-linejoin="round"/>
<path d="M13.9243 19.6328C13.0198 17.9115 12.5 15.954 12.5 13.875C12.5 7.0395 18.0395 1.5 24.875 1.5C31.7105 1.5 37.25 7.0395 37.25 13.875C37.25 20.7105 31.7105 26.25 24.875 26.25C22.8118 26.25 20.87 25.737 19.16 24.846L12.5428 26.25L13.9243 19.6328V19.6328Z" stroke="#222222" stroke-width="1.5" stroke-linecap="round" stroke-linejoin="round"/>
</svg>
