<svg width="100" height="36" viewBox="0 0 100 36" fill="none" xmlns="http://www.w3.org/2000/svg">
<path d="M33.0705 22.2509C33.0705 22.2873 33.0613 22.3191 33.0422 22.3464C33.0234 22.3737 32.9904 22.3965 32.9435 22.4147C32.8964 22.4283 32.8329 22.4397 32.7529 22.4488C32.6776 22.4624 32.5812 22.4693 32.4635 22.4693C32.3506 22.4693 32.2541 22.4624 32.1741 22.4488C32.0941 22.4397 32.0306 22.4283 31.9836 22.4147C31.9365 22.3965 31.9036 22.3737 31.8847 22.3464C31.8659 22.3191 31.8565 22.2873 31.8565 22.2509V13.7747C31.8565 13.7383 31.8659 13.7064 31.8847 13.6791C31.9083 13.6518 31.9436 13.6314 31.9906 13.6177C32.0424 13.5995 32.1059 13.5859 32.1812 13.5768C32.2612 13.5631 32.3553 13.5563 32.4635 13.5563C32.5812 13.5563 32.6776 13.5631 32.7529 13.5768C32.8329 13.5859 32.8964 13.5995 32.9435 13.6177C32.9904 13.6314 33.0234 13.6518 33.0422 13.6791C33.0613 13.7064 33.0705 13.7383 33.0705 13.7747V22.2509ZM41.5193 19.8964C41.5193 20.1739 41.4817 20.431 41.4063 20.6676C41.3357 20.8996 41.2346 21.1089 41.1028 21.2954C40.971 21.482 40.8112 21.6458 40.6227 21.7868C40.4392 21.9279 40.23 22.0461 39.9947 22.1417C39.7641 22.2372 39.5147 22.31 39.2465 22.3601C38.9829 22.4056 38.6794 22.4283 38.3361 22.4283H35.9502C35.8422 22.4283 35.7387 22.3942 35.6399 22.326C35.5456 22.2532 35.4985 22.128 35.4985 21.9506V14.0749C35.4985 13.8975 35.5456 13.7747 35.6399 13.7064C35.7387 13.6336 35.8422 13.5972 35.9502 13.5972H38.0254C38.5713 13.5972 39.0184 13.6473 39.3664 13.7474C39.7147 13.8475 40.004 13.9931 40.2346 14.1842C40.4698 14.3752 40.6465 14.6096 40.7641 14.8871C40.8817 15.1646 40.9404 15.4786 40.9404 15.8289C40.9404 16.0382 40.9147 16.2384 40.8629 16.4295C40.8112 16.6206 40.7334 16.798 40.63 16.9618C40.5311 17.121 40.404 17.2644 40.2488 17.3917C40.0982 17.5191 39.9242 17.6238 39.7265 17.7057C39.9759 17.7512 40.2089 17.8353 40.4254 17.9582C40.6418 18.0765 40.83 18.2289 40.9898 18.4154C41.1545 18.602 41.284 18.8204 41.3782 19.0706C41.4722 19.3208 41.5193 19.5961 41.5193 19.8964ZM39.6913 15.9449C39.6913 15.7311 39.6606 15.5377 39.5993 15.3648C39.5384 15.1919 39.4418 15.0463 39.31 14.9281C39.1783 14.8052 39.0066 14.7119 38.7947 14.6482C38.5829 14.5845 38.3031 14.5527 37.9549 14.5527H36.6985V17.4122H38.082C38.397 17.4122 38.6514 17.3735 38.8442 17.2962C39.0372 17.2143 39.197 17.1074 39.3242 16.9754C39.4511 16.839 39.543 16.682 39.5993 16.5045C39.6606 16.3226 39.6913 16.136 39.6913 15.9449ZM40.2418 19.9646C40.2418 19.7007 40.197 19.4687 40.1077 19.2685C40.0231 19.0683 39.8959 18.9 39.7265 18.7635C39.5618 18.627 39.3522 18.5246 39.0982 18.4564C38.8488 18.3836 38.5338 18.3472 38.1526 18.3472H36.6985V21.4592H38.4629C38.7407 21.4592 38.9829 21.4274 39.1901 21.3637C39.397 21.3 39.5783 21.2067 39.7334 21.0839C39.8936 20.9565 40.0181 20.7995 40.1077 20.613C40.197 20.4264 40.2418 20.2103 40.2418 19.9646ZM50.2646 21.9438C50.2646 22.0348 50.2481 22.1121 50.2152 22.1758C50.1868 22.2395 50.1469 22.2918 50.0949 22.3328C50.0481 22.3737 49.9937 22.4033 49.9328 22.4215C49.8715 22.4397 49.8102 22.4488 49.7493 22.4488H49.3611C49.2385 22.4488 49.1305 22.4374 49.0362 22.4147C48.9469 22.3874 48.86 22.3419 48.7753 22.2782C48.6952 22.2099 48.6128 22.1189 48.5282 22.0052C48.4481 21.8914 48.3588 21.7458 48.26 21.5684L45.3802 16.5455C45.2296 16.2861 45.0768 16.0154 44.9212 15.7333C44.7707 15.4467 44.6297 15.1692 44.4979 14.9007H44.4837C44.4932 15.2283 44.5002 15.5627 44.5048 15.904C44.5097 16.2452 44.512 16.5841 44.512 16.9208V22.2509C44.512 22.2827 44.5025 22.3146 44.4837 22.3464C44.4649 22.3737 44.432 22.3965 44.3848 22.4147C44.3427 22.4283 44.2837 22.4397 44.2086 22.4488C44.1377 22.4624 44.0461 22.4693 43.9331 22.4693C43.8201 22.4693 43.7262 22.4624 43.6507 22.4488C43.5802 22.4397 43.5239 22.4283 43.4814 22.4147C43.4392 22.3965 43.4086 22.3737 43.3898 22.3464C43.371 22.3146 43.3614 22.2827 43.3614 22.2509V14.1023C43.3614 13.9203 43.4132 13.7906 43.5166 13.7133C43.6204 13.6359 43.7331 13.5972 43.8557 13.5972H44.4343C44.5707 13.5972 44.6837 13.6086 44.773 13.6314C44.8672 13.6541 44.9496 13.6928 45.0201 13.7474C45.0955 13.7974 45.1661 13.8702 45.232 13.9658C45.3025 14.0568 45.3779 14.1728 45.4577 14.3138L47.6741 18.1902C47.8105 18.4268 47.9423 18.6588 48.0692 18.8863C48.1964 19.1093 48.3186 19.3299 48.4362 19.5483C48.5539 19.7667 48.6692 19.9828 48.7822 20.1967C48.8998 20.4059 49.0152 20.6175 49.1282 20.8314H49.1351C49.1255 20.4719 49.1186 20.0988 49.114 19.7121C49.114 19.3209 49.114 18.9455 49.114 18.586V13.7952C49.114 13.7633 49.1232 13.7337 49.142 13.7064C49.1611 13.6791 49.1914 13.6564 49.2339 13.6382C49.281 13.6154 49.3397 13.5995 49.4105 13.5904C49.4857 13.5813 49.5822 13.5768 49.6998 13.5768C49.8033 13.5768 49.8926 13.5813 49.968 13.5904C50.0432 13.5995 50.1021 13.6154 50.1443 13.6382C50.1868 13.6564 50.2175 13.6791 50.2362 13.7064C50.255 13.7337 50.2646 13.7633 50.2646 13.7952V21.9438ZM57.598 19.951C57.598 20.365 57.518 20.7335 57.3578 21.0566C57.2026 21.3796 56.9838 21.6549 56.7015 21.8824C56.424 22.1053 56.0946 22.2736 55.7133 22.3874C55.3371 22.5011 54.9298 22.558 54.4922 22.558C54.1865 22.558 53.9018 22.533 53.6382 22.4829C53.3796 22.4329 53.1466 22.3715 52.9394 22.2987C52.7371 22.2259 52.5654 22.1508 52.4244 22.0734C52.2876 21.9961 52.1914 21.9301 52.1348 21.8755C52.083 21.8209 52.0432 21.7527 52.0148 21.6708C51.9914 21.5843 51.9796 21.4706 51.9796 21.3296C51.9796 21.2295 51.9842 21.1475 51.9937 21.0839C52.003 21.0156 52.0171 20.961 52.0359 20.9201C52.055 20.8791 52.0784 20.8518 52.1067 20.8382C52.1348 20.82 52.1677 20.8109 52.2056 20.8109C52.2712 20.8109 52.3631 20.8495 52.4807 20.9269C52.603 21.0042 52.7585 21.0884 52.9466 21.1794C53.1348 21.2704 53.3608 21.3569 53.624 21.4387C53.8922 21.5161 54.2007 21.5548 54.5489 21.5548C54.8122 21.5548 55.0524 21.5206 55.2689 21.4524C55.4899 21.3842 55.6781 21.2886 55.8333 21.1658C55.9934 21.0384 56.1156 20.8837 56.2003 20.7017C56.285 20.5197 56.3275 20.3127 56.3275 20.0806C56.3275 19.8304 56.2685 19.6166 56.1509 19.4391C56.0333 19.2617 55.8781 19.107 55.685 18.9751C55.4922 18.8385 55.2712 18.7157 55.0217 18.6065C54.7769 18.4928 54.5252 18.379 54.2665 18.2653C54.0076 18.147 53.7558 18.0173 53.5114 17.8763C53.2665 17.7353 53.0478 17.5692 52.8547 17.3781C52.6619 17.187 52.5041 16.9641 52.3819 16.7093C52.2642 16.4499 52.2056 16.1406 52.2056 15.7811C52.2056 15.4126 52.2738 15.085 52.4102 14.7984C52.5512 14.5072 52.7443 14.2638 52.9888 14.0681C53.2382 13.8725 53.5324 13.7246 53.8712 13.6245C54.2148 13.5199 54.5842 13.4676 54.9792 13.4676C55.1815 13.4676 55.3838 13.4858 55.5865 13.5222C55.7934 13.554 55.9862 13.5995 56.1651 13.6587C56.3486 13.7133 56.511 13.7769 56.6521 13.8497C56.7934 13.918 56.885 13.9749 56.9275 14.0204C56.9746 14.0613 57.0049 14.0954 57.0191 14.1227C57.0333 14.1455 57.0451 14.1773 57.0544 14.2183C57.0639 14.2547 57.0708 14.3002 57.0758 14.3548C57.0804 14.4094 57.0827 14.4799 57.0827 14.5663C57.0827 14.6482 57.0781 14.721 57.0685 14.7847C57.0639 14.8484 57.0544 14.903 57.0402 14.9485C57.0264 14.9895 57.0049 15.0213 56.9769 15.044C56.9532 15.0623 56.9252 15.0714 56.8922 15.0714C56.8402 15.0714 56.7581 15.0395 56.6451 14.9758C56.5367 14.9121 56.4026 14.8416 56.2428 14.7642C56.0827 14.6824 55.8922 14.6096 55.6712 14.5458C55.4547 14.4776 55.2099 14.4435 54.9371 14.4435C54.683 14.4435 54.4616 14.4776 54.2735 14.5458C54.0853 14.6096 53.9301 14.696 53.8076 14.8052C53.6853 14.9144 53.5934 15.044 53.5324 15.1942C53.4712 15.3443 53.4405 15.5036 53.4405 15.6719C53.4405 15.9176 53.4995 16.1292 53.6171 16.3066C53.7348 16.484 53.8899 16.641 54.083 16.7775C54.2807 16.914 54.5041 17.0391 54.7535 17.1529C55.003 17.2666 55.257 17.3826 55.5156 17.5009C55.7746 17.6147 56.0287 17.7421 56.2781 17.8831C56.5275 18.0196 56.7486 18.1834 56.9417 18.3745C57.139 18.561 57.2969 18.784 57.4145 19.0433C57.5367 19.2981 57.598 19.6006 57.598 19.951ZM60.5552 22.2509C60.5552 22.2873 60.546 22.3191 60.5272 22.3464C60.5084 22.3737 60.4754 22.3965 60.4283 22.4147C60.3812 22.4283 60.3176 22.4397 60.2379 22.4488C60.1624 22.4624 60.0659 22.4693 59.9483 22.4693C59.8352 22.4693 59.739 22.4624 59.659 22.4488C59.5789 22.4397 59.5153 22.4283 59.4685 22.4147C59.4214 22.3965 59.3885 22.3737 59.3697 22.3464C59.3509 22.3191 59.3413 22.2873 59.3413 22.2509V13.7747C59.3413 13.7383 59.3509 13.7064 59.3697 13.6791C59.3931 13.6518 59.4283 13.6314 59.4754 13.6177C59.5272 13.5995 59.5908 13.5859 59.6659 13.5768C59.746 13.5631 59.8402 13.5563 59.9483 13.5563C60.0659 13.5563 60.1624 13.5631 60.2379 13.5768C60.3176 13.5859 60.3812 13.5995 60.4283 13.6177C60.4754 13.6314 60.5084 13.6518 60.5272 13.6791C60.546 13.7064 60.5552 13.7383 60.5552 13.7747V22.2509ZM69.8863 21.9438C69.8863 22.0348 69.8698 22.1121 69.8369 22.1758C69.8086 22.2395 69.7687 22.2918 69.7169 22.3328C69.6698 22.3737 69.6158 22.4033 69.5545 22.4215C69.4936 22.4397 69.4323 22.4488 69.371 22.4488H68.9828C68.8606 22.4488 68.7522 22.4374 68.6583 22.4147C68.5687 22.3874 68.4817 22.3419 68.397 22.2782C68.317 22.2099 68.2346 22.1189 68.1499 22.0052C68.0702 21.8914 67.9805 21.7458 67.8817 21.5684L65.002 16.5455C64.8514 16.2861 64.6985 16.0154 64.5433 15.7333C64.3927 15.4467 64.2514 15.1692 64.1196 14.9007H64.1058C64.115 15.2283 64.1222 15.5627 64.1268 15.904C64.1315 16.2452 64.1338 16.5841 64.1338 16.9208V22.2509C64.1338 22.2827 64.1245 22.3146 64.1058 22.3464C64.087 22.3737 64.054 22.3965 64.0069 22.4147C63.9644 22.4283 63.9058 22.4397 63.8303 22.4488C63.7598 22.4624 63.6679 22.4693 63.5552 22.4693C63.4422 22.4693 63.3479 22.4624 63.2728 22.4488C63.2023 22.4397 63.1456 22.4283 63.1034 22.4147C63.0609 22.3965 63.0303 22.3737 63.0115 22.3464C62.9927 22.3146 62.9835 22.2827 62.9835 22.2509V14.1023C62.9835 13.9203 63.0352 13.7906 63.1387 13.7133C63.2422 13.6359 63.3552 13.5972 63.4774 13.5972H64.0563C64.1927 13.5972 64.3058 13.6086 64.395 13.6314C64.4893 13.6541 64.5713 13.6928 64.6422 13.7474C64.7173 13.7974 64.7878 13.8702 64.8537 13.9658C64.9245 14.0568 64.9997 14.1728 65.0797 14.3138L67.2959 18.1902C67.4323 18.4268 67.5641 18.6588 67.6913 18.8863C67.8184 19.1093 67.9407 19.3299 68.0583 19.5483C68.1759 19.7667 68.2913 19.9828 68.4043 20.1967C68.5219 20.4059 68.6369 20.6175 68.7499 20.8314H68.7572C68.7476 20.4719 68.7407 20.0988 68.7357 19.7121C68.7357 19.3209 68.7357 18.9455 68.7357 18.586V13.7952C68.7357 13.7633 68.7453 13.7337 68.7641 13.7064C68.7829 13.6791 68.8135 13.6564 68.856 13.6382C68.9028 13.6154 68.9618 13.5995 69.0323 13.5904C69.1077 13.5813 69.2039 13.5768 69.3216 13.5768C69.4254 13.5768 69.5146 13.5813 69.5898 13.5904C69.6652 13.5995 69.7239 13.6154 69.7664 13.6382C69.8086 13.6564 69.8392 13.6791 69.858 13.7064C69.8771 13.7337 69.8863 13.7633 69.8863 13.7952V21.9438ZM79.1539 22.012C79.1914 22.1121 79.2102 22.194 79.2102 22.2577C79.2151 22.3168 79.1987 22.3623 79.1608 22.3942C79.1232 22.4261 79.0596 22.4465 78.9703 22.4556C78.8857 22.4647 78.7703 22.4693 78.6244 22.4693C78.4787 22.4693 78.3608 22.4647 78.2715 22.4556C78.1868 22.4511 78.1209 22.442 78.0738 22.4283C78.0316 22.4101 77.9987 22.3874 77.9749 22.3601C77.9562 22.3328 77.9374 22.2987 77.9186 22.2577L77.1351 20.1079H73.3377L72.5898 22.2304C72.5756 22.2714 72.5568 22.3077 72.5331 22.3396C72.5097 22.3669 72.4744 22.3919 72.4273 22.4147C72.3848 22.4329 72.3216 22.4465 72.2369 22.4556C72.1568 22.4647 72.0507 22.4693 71.9193 22.4693C71.7825 22.4693 71.6698 22.4624 71.5802 22.4488C71.4955 22.4397 71.4346 22.4192 71.3967 22.3874C71.3637 22.3555 71.3473 22.31 71.3473 22.2509C71.3522 22.1872 71.3733 22.1053 71.4109 22.0052L74.4741 13.802C74.4929 13.7519 74.5166 13.711 74.5446 13.6791C74.5776 13.6473 74.6224 13.6223 74.6787 13.604C74.74 13.5859 74.8155 13.5745 74.9048 13.5699C74.999 13.5608 75.1166 13.5563 75.2576 13.5563C75.4082 13.5563 75.5328 13.5608 75.6316 13.5699C75.7305 13.5745 75.8105 13.5859 75.8718 13.604C75.9328 13.6223 75.9799 13.6496 76.0128 13.686C76.0458 13.7178 76.0718 13.7588 76.0906 13.8088L79.1539 22.012ZM75.2224 14.7711H75.2155L73.6412 19.173H76.8174L75.2224 14.7711Z" fill="#0D0D0D"/>
<path d="M81.0557 21.629C81.0557 21.3494 81.1519 21.1225 81.3446 20.9482C81.5417 20.774 81.7868 20.6869 82.0804 20.6869C82.3779 20.6869 82.623 20.774 82.8158 20.9482C83.0128 21.1225 83.111 21.3494 83.111 21.629C83.111 21.9045 83.0148 22.1294 82.8221 22.3036C82.6293 22.4738 82.3819 22.5589 82.0804 22.5589C81.7828 22.5589 81.5377 22.4738 81.3446 22.3036C81.1519 22.1294 81.0557 21.9045 81.0557 21.629ZM87.6936 18.9425L86.713 19.9636V22.492H84.8273V13.6425H86.713V17.654L87.5427 16.5539L89.8748 13.6425H92.1944L88.9446 17.5749L92.2886 22.492H90.0448L87.6936 18.9425ZM94.998 21.0272H99.6119V22.492H92.6408V21.4223L97.1667 15.1194H92.6471V13.6425H99.5114V14.6879L94.998 21.0272Z" fill="#0D0D0D"/>
<path fill-rule="evenodd" clip-rule="evenodd" d="M18.7654 24.2812C18.236 22.2543 17.6889 20.2312 17.1646 18.2037L16.0982 14.1555C16.0544 13.9862 16.0098 13.8262 15.9652 13.6539C15.9441 13.5721 15.9211 13.492 15.8992 13.4026C15.8911 13.3697 15.8755 13.3081 15.8649 13.2718C15.8518 13.2264 15.8352 13.1911 15.8504 13.1472H15.8114C15.7606 13.358 15.1599 15.0559 15.0602 15.345L14.933 15.7135C14.8902 15.8375 14.8446 15.9523 14.8076 16.0713L13.8037 18.9826C13.8021 18.9826 2.89832 18.9323 0 18.9094V22.1101C0 24.0452 1.63748 25.6285 3.63885 25.6285H10.7098V32.4653C10.7098 34.4007 12.3473 35.9838 14.3487 35.9838H22.8669C24.8683 35.9838 26.5058 34.4007 26.5058 32.4653V25.6285H33.5766C34.9858 25.6285 36.2145 24.8436 36.8185 23.7037H30.7358C30.3037 23.7037 29.9502 23.3618 29.9502 22.944V18.9948C29.6917 18.9921 29.3711 18.977 29.1358 18.9959C28.8693 19.0172 28.5496 19.0079 28.2616 19.0078C28.1071 19.0077 27.9928 19.0204 27.8314 19.0204L25.8493 19.0325C25.7715 19.0334 25.7327 19.0462 25.6413 19.0457C25.0396 19.0427 24.474 19.0582 23.8813 19.0582C23.8776 19.1006 23.8686 19.1081 23.8553 19.1466L23.1756 20.9976C23.1396 21.1022 23.0947 21.2118 23.0549 21.3219C23.0147 21.4333 22.9826 21.532 22.9407 21.6401C22.9004 21.7441 22.8601 21.8514 22.8205 21.965C22.7826 22.0733 22.7419 22.1718 22.7029 22.2798C22.6228 22.5012 22.5454 22.7022 22.4685 22.9228C22.3922 23.1416 22.3088 23.3449 22.2318 23.5637L21.0507 26.7826C20.9215 27.1578 20.7659 27.5331 20.6366 27.9073L20.2814 28.8747C20.2644 28.9239 20.2449 28.9781 20.2235 29.033C20.1939 29.1091 20.1546 29.2825 20.1005 29.3426C19.9387 28.6711 19.7394 27.9842 19.566 27.3135L18.7654 24.2812Z" fill="#1E54B7"/>
<path fill-rule="evenodd" clip-rule="evenodd" d="M10.2316 17.5458H11.9264C12.2097 17.5458 12.4577 17.5584 12.7477 17.5584C12.7533 17.493 12.8219 17.3241 12.8471 17.2512L15.8097 8.65876L15.9108 8.36573C15.9299 8.31027 15.9828 8.12198 16.02 8.08063C16.071 8.2922 16.1271 8.5011 16.1851 8.71503L16.6821 10.604C16.8445 11.211 17.0098 11.8939 17.1819 12.4902C17.2413 12.6961 17.2854 12.9183 17.3498 13.1219C17.353 13.2077 17.4185 13.3867 17.441 13.4749C17.5919 14.0635 17.7694 14.6627 17.9092 15.2531L18.0943 15.9564C18.1632 16.1881 18.2125 16.4304 18.2828 16.669L19.3111 20.5775C19.4029 20.9338 19.4877 21.2847 19.5907 21.6307C19.6092 21.6928 19.6197 21.7452 19.6371 21.8127L19.779 22.3434C19.8441 22.5831 19.8948 22.8098 19.9646 23.0463C20.0351 23.2855 20.0838 23.5279 20.151 23.7609L20.2926 24.292C20.3061 24.347 20.3094 24.425 20.3482 24.4525C20.3553 24.37 20.687 23.496 20.7355 23.3775L20.9693 22.7464C21.221 22.0314 21.501 21.3279 21.7515 20.6164L22.2173 19.3401C22.3675 18.9133 22.5419 18.495 22.6868 18.0673C22.7335 17.9294 22.8044 17.7873 22.8383 17.6466C23.7069 17.6466 24.577 17.6172 25.4458 17.6215C25.5413 17.622 25.5816 17.6085 25.6669 17.6084C25.9765 17.608 26.3185 17.6199 26.6067 17.5969C26.883 17.5747 27.2693 17.5962 27.5577 17.5962C28.3375 17.5962 29.1299 17.571 29.9173 17.571C29.9285 17.571 29.9394 17.5709 29.9502 17.5708V13.0398C29.9502 12.622 30.3037 12.2802 30.7358 12.2802H36.8185C36.2145 11.1402 34.9858 10.3554 33.5766 10.3554H26.5058V3.51841C26.5058 1.58328 24.8683 0 22.8669 0H14.3487C12.3473 0 10.7098 1.58328 10.7098 3.51841V10.3554H3.63885C1.63748 10.3554 0 11.9387 0 13.8738V17.4842C0.891381 17.4875 1.76783 17.4954 2.67017 17.4954C3.77664 17.4954 4.91667 17.5206 6.02066 17.5206C7.16096 17.5206 8.2602 17.5332 9.39723 17.5332C9.68781 17.5332 9.93736 17.5458 10.2316 17.5458Z" fill="#1E54B7"/>
</svg>
